# xmcd
#
# Track frame offsets:
#	150
#	15210
#	31372
#	48327
#	60797
#	77165
#	93530
#	106987
#	121175
#	135127
#	153480
#	169397
#	183722
#	197232
#
# Disc length: 2859 seconds
#
# Revision: 0
# Processed by: cddbd v1.5PL3 Copyright (c) Steve Scherf et al.
# Submitted via: dBpowerAMP V4.0
#
DISCID=aa0b290e
DTITLE=Eliane Camargo - Fera Domada
DYEAR=1900
DGENRE=
TTITLE0=Nóis é do mato mas nõis conhece
TTITLE1=Fera domada
TTITLE2=Chuva Santa
TTITLE3=Acelere um pouco
TTITLE4=Sol e lua
TTITLE5=Anjo sem juizo
TTITLE6=Palavreado caipira
TTITLE7=Me apaixonei por um cawbou
TTITLE8=Estrelas a cantar
TTITLE9=Apaixonada por ele
TTITLE10=Não pode ser verdade
TTITLE11=Show de peão
TTITLE12=Comigo vc faz amor
TTITLE13=Eu quero bis
EXTD=Eliane Camargo\nFera Domada
EXTT0=
EXTT1=
EXTT2=
EXTT3=
EXTT4=
EXTT5=
EXTT6=
EXTT7=
EXTT8=
EXTT9=
EXTT10=
EXTT11=
EXTT12=
EXTT13=
PLAYORDER=
